<svg width="20" height="20" viewBox="0 0 20 20" fill="none" xmlns="http://www.w3.org/2000/svg">
<path d="M12.1097 18.0664C12.1413 18.1453 12.1964 18.2126 12.2674 18.2593C12.3384 18.306 12.422 18.3298 12.5069 18.3277C12.5919 18.3255 12.6742 18.2974 12.7427 18.2471C12.8112 18.1968 12.8627 18.1268 12.8903 18.0464L18.3054 2.21771C18.332 2.14389 18.3371 2.06401 18.32 1.98741C18.303 1.9108 18.2644 1.84065 18.2089 1.78515C18.1534 1.72965 18.0833 1.69111 18.0067 1.67403C17.9301 1.65695 17.8502 1.66204 17.7764 1.6887L1.94768 7.10377C1.86729 7.13134 1.79725 7.18285 1.74697 7.25137C1.69669 7.3199 1.66857 7.40216 1.6664 7.48712C1.66422 7.57209 1.68809 7.65569 1.73479 7.72669C1.7815 7.7977 1.84881 7.85273 1.92769 7.88438L8.53408 10.5336C8.74292 10.6172 8.93267 10.7423 9.09189 10.9012C9.2511 11.0601 9.37648 11.2496 9.46047 11.4583L12.1097 18.0664Z" stroke="white" stroke-width="1.66618" stroke-linecap="round" stroke-linejoin="round"/>
<path d="M18.2063 1.78864L9.09229 10.9018" stroke="white" stroke-width="1.66618" stroke-linecap="round" stroke-linejoin="round"/>
</svg>
