<svg width="48" height="48" viewBox="0 0 48 48" fill="none" xmlns="http://www.w3.org/2000/svg">
<path d="M19.8737 30.9994C19.6951 30.3073 19.3344 29.6757 18.8289 29.1702C18.3235 28.6648 17.6918 28.304 16.9997 28.1255L4.72993 24.9616C4.52059 24.9021 4.33635 24.7761 4.20516 24.6024C4.07397 24.4288 4.00299 24.2172 4.00299 23.9996C4.00299 23.782 4.07397 23.5703 4.20516 23.3967C4.33635 23.2231 4.52059 23.097 4.72993 23.0376L16.9997 19.8716C17.6916 19.6933 18.3231 19.3328 18.8285 18.8277C19.3339 18.3227 19.6948 17.6915 19.8737 16.9997L23.0376 4.72991C23.0964 4.51975 23.2224 4.3346 23.3962 4.2027C23.5701 4.07081 23.7824 3.99942 24.0006 3.99942C24.2188 3.99942 24.4311 4.07081 24.6049 4.2027C24.7788 4.3346 24.9048 4.51975 24.9636 4.72991L28.1255 16.9997C28.3041 17.6918 28.6648 18.3235 29.1703 18.8289C29.6757 19.3343 30.3073 19.6951 30.9995 19.8736L43.2693 23.0356C43.4803 23.0938 43.6663 23.2196 43.7989 23.3937C43.9315 23.5679 44.0033 23.7807 44.0033 23.9996C44.0033 24.2184 43.9315 24.4313 43.7989 24.6054C43.6663 24.7795 43.4803 24.9054 43.2693 24.9636L30.9995 28.1255C30.3073 28.304 29.6757 28.6648 29.1703 29.1702C28.6648 29.6757 28.3041 30.3073 28.1255 30.9994L24.9616 43.2692C24.9028 43.4794 24.7768 43.6645 24.6029 43.7964C24.4291 43.9283 24.2168 43.9997 23.9986 43.9997C23.7804 43.9997 23.5681 43.9283 23.3942 43.7964C23.2204 43.6645 23.0944 43.4794 23.0356 43.2692L19.8737 30.9994Z" stroke="#FFDF20" stroke-width="3.99993" stroke-linecap="round" stroke-linejoin="round"/>
<path d="M39.9993 5.99991V13.9998" stroke="#FFDF20" stroke-width="3.99993" stroke-linecap="round" stroke-linejoin="round"/>
<path d="M43.9993 9.99982H35.9994" stroke="#FFDF20" stroke-width="3.99993" stroke-linecap="round" stroke-linejoin="round"/>
<path d="M7.99985 33.9994V37.9994" stroke="#FFDF20" stroke-width="3.99993" stroke-linecap="round" stroke-linejoin="round"/>
<path d="M9.99984 35.9994H5.99991" stroke="#FFDF20" stroke-width="3.99993" stroke-linecap="round" stroke-linejoin="round"/>
</svg>
