<svg width="72" height="72" viewBox="0 0 72 72" fill="none" xmlns="http://www.w3.org/2000/svg">
<path d="M50.6658 45.3325C54.6391 41.4393 58.6657 36.7727 58.6657 30.6661C58.6657 26.7764 57.1205 23.0459 54.37 20.2954C51.6195 17.5449 47.889 15.9997 43.9992 15.9997C39.306 15.9997 35.9994 17.333 31.9995 21.333C27.9995 17.333 24.6929 15.9997 19.9997 15.9997C16.1099 15.9997 12.3794 17.5449 9.62894 20.2954C6.87846 23.0459 5.33325 26.7764 5.33325 30.6661C5.33325 36.7994 9.33318 41.4659 13.3331 45.3325L31.9995 63.9989L50.6658 45.3325Z" fill="white" stroke="white" stroke-width="5.33324" stroke-linecap="round" stroke-linejoin="round"/>
<path d="M55.9991 6.66655C56.0006 6.13326 55.8956 5.60505 55.69 5.11297C55.4844 4.6209 55.1826 4.17489 54.8021 3.80119C54.4217 3.42749 53.9703 3.13364 53.4747 2.93692C52.979 2.7402 52.449 2.64459 51.9158 2.6557C51.3826 2.66681 50.8571 2.78443 50.37 3.00163C49.883 3.21883 49.4443 3.53124 49.0797 3.92047C48.7152 4.3097 48.4321 4.76789 48.2473 5.26811C48.0624 5.76832 47.9794 6.30046 48.0032 6.83321C47.2195 7.03472 46.4919 7.41193 45.8755 7.93627C45.2592 8.46061 44.7702 9.11834 44.4457 9.85962C44.1212 10.6009 43.9696 11.4063 44.0025 12.2149C44.0353 13.0234 44.2517 13.8139 44.6353 14.5264C43.9608 15.0743 43.4305 15.7787 43.0904 16.5783C42.7503 17.3779 42.6107 18.2485 42.6838 19.1143C42.7569 19.9802 43.0404 20.815 43.5097 21.5463C43.979 22.2776 44.6199 22.8831 45.3766 23.3103C45.2831 24.0332 45.3389 24.7677 45.5404 25.4683C45.742 26.1688 46.085 26.8206 46.5483 27.3835C47.0116 27.9463 47.5854 28.4081 48.2342 28.7405C48.883 29.0729 49.593 29.2687 50.3205 29.3159C51.0479 29.3631 51.7773 29.2607 52.4636 29.015C53.15 28.7692 53.7786 28.3854 54.3108 27.8872C54.8429 27.389 55.2673 26.787 55.5577 26.1183C55.8481 25.4496 55.9983 24.7286 55.9991 23.9996V6.66655Z" stroke="white" stroke-width="2.66662" stroke-linecap="round" stroke-linejoin="round"/>
<path d="M55.999 6.66655C55.9975 6.13326 56.1026 5.60505 56.3081 5.11297C56.5137 4.6209 56.8155 4.17489 57.196 3.80119C57.5764 3.42749 58.0278 3.13364 58.5235 2.93692C59.0191 2.7402 59.5491 2.64459 60.0823 2.6557C60.6155 2.66681 61.141 2.78443 61.6281 3.00163C62.1151 3.21883 62.5538 3.53124 62.9184 3.92047C63.2829 4.3097 63.566 4.76789 63.7508 5.26811C63.9357 5.76832 64.0187 6.30046 63.9949 6.83321C64.7786 7.03472 65.5062 7.41193 66.1226 7.93627C66.7389 8.46061 67.2279 9.11834 67.5524 9.85962C67.8769 10.6009 68.0285 11.4063 67.9956 12.2149C67.9628 13.0234 67.7464 13.8139 67.3628 14.5264C68.0373 15.0743 68.5676 15.7787 68.9077 16.5783C69.2478 17.3779 69.3874 18.2485 69.3143 19.1143C69.2413 19.9802 68.9577 20.815 68.4884 21.5463C68.0191 22.2776 67.3782 22.8831 66.6215 23.3103C66.715 24.0332 66.6592 24.7677 66.4577 25.4683C66.2561 26.1688 65.9131 26.8206 65.4498 27.3835C64.9865 27.9463 64.4127 28.4081 63.7639 28.7405C63.1151 29.0729 62.4051 29.2687 61.6776 29.3159C60.9502 29.3631 60.2208 29.2607 59.5345 29.015C58.8481 28.7692 58.2195 28.3854 57.6873 27.8872C57.1552 27.389 56.7308 26.787 56.4404 26.1183C56.15 25.4496 55.9998 24.7286 55.999 23.9996V6.66655Z" stroke="white" stroke-width="2.66662" stroke-linecap="round" stroke-linejoin="round"/>
<path d="M59.999 17.333C58.8796 16.9392 57.9021 16.2224 57.1901 15.2731C56.4781 14.3238 56.0636 13.1847 55.999 11.9998C55.9344 13.1847 55.5199 14.3238 54.808 15.2731C54.096 16.2224 53.1185 16.9392 51.9991 17.333" stroke="white" stroke-width="2.66662" stroke-linecap="round" stroke-linejoin="round"/>
<path d="M63.4643 8.66652C63.787 8.10731 63.9695 7.4783 63.9963 6.83322" stroke="white" stroke-width="2.66662" stroke-linecap="round" stroke-linejoin="round"/>
<path d="M48.0032 6.83322C48.0295 7.47819 48.2116 8.10719 48.5338 8.66652" stroke="white" stroke-width="2.66662" stroke-linecap="round" stroke-linejoin="round"/>
<path d="M44.6353 14.5277C44.8792 14.3291 45.1402 14.1524 45.4152 13.9998" stroke="white" stroke-width="2.66662" stroke-linecap="round" stroke-linejoin="round"/>
<path d="M66.5829 13.9998C66.8579 14.1524 67.1189 14.3291 67.3628 14.5277" stroke="white" stroke-width="2.66662" stroke-linecap="round" stroke-linejoin="round"/>
<path d="M47.9992 23.9996C47.0803 24 46.1769 23.763 45.3766 23.3116" stroke="white" stroke-width="2.66662" stroke-linecap="round" stroke-linejoin="round"/>
<path d="M66.6215 23.3116C65.8212 23.763 64.9178 24 63.9989 23.9996" stroke="white" stroke-width="2.66662" stroke-linecap="round" stroke-linejoin="round"/>
</svg>
