<svg width="124" height="124" viewBox="0 0 124 124" fill="none" xmlns="http://www.w3.org/2000/svg">
<path d="M13.9172 61.9164C13.9172 35.4072 35.4072 13.9172 61.9164 13.9172C88.4256 13.9172 109.916 35.4072 109.916 61.9164C109.916 88.4256 88.4256 109.916 61.9164 109.916C35.4072 109.916 13.9172 88.4256 13.9172 61.9164Z" fill="url(#paint0_linear_1_287)"/>
<path d="M77.9161 45.9167H45.9167C43.7076 45.9167 41.9167 47.7075 41.9167 49.9166V73.9162C41.9167 76.1253 43.7076 77.9161 45.9167 77.9161H77.9161C80.1252 77.9161 81.9161 76.1253 81.9161 73.9162V49.9166C81.9161 47.7075 80.1252 45.9167 77.9161 45.9167Z" stroke="#4338CA" stroke-width="3.99993" stroke-linecap="round" stroke-linejoin="round"/>
<path d="M81.9161 51.9166L63.9764 63.3164C63.3589 63.7032 62.645 63.9084 61.9164 63.9084C61.1878 63.9084 60.4739 63.7032 59.8564 63.3164L41.9167 51.9166" stroke="#4338CA" stroke-width="3.99993" stroke-linecap="round" stroke-linejoin="round"/>
<g opacity="0.21014">
<mask id="path-4-inside-1_1_287" fill="white">
<path d="M0 61.9176C0 27.7215 27.7215 0 61.9176 0C96.1137 0 123.835 27.7215 123.835 61.9176C123.835 96.1137 96.1137 123.835 61.9176 123.835C27.7215 123.835 0 96.1137 0 61.9176Z"/>
</mask>
<path d="M0 61.9176M123.835 61.9176M123.835 61.9176M0 61.9176M61.9176 0M123.835 61.9176M61.9176 123.835M0 61.9176M61.9176 123.835V120.294C29.677 120.294 3.54074 94.1582 3.54074 61.9176H0H-3.54074C-3.54074 98.0692 25.766 127.376 61.9176 127.376V123.835ZM123.835 61.9176H120.294C120.294 94.1582 94.1582 120.294 61.9176 120.294V123.835V127.376C98.0692 127.376 127.376 98.0692 127.376 61.9176H123.835ZM61.9176 0V3.54074C94.1582 3.54074 120.294 29.677 120.294 61.9176H123.835H127.376C127.376 25.766 98.0692 -3.54074 61.9176 -3.54074V0ZM61.9176 0V-3.54074C25.766 -3.54074 -3.54074 25.766 -3.54074 61.9176H0H3.54074C3.54074 29.677 29.677 3.54074 61.9176 3.54074V0Z" fill="#4F46E5" mask="url(#path-4-inside-1_1_287)"/>
</g>
<defs>
<linearGradient id="paint0_linear_1_287" x1="13.9172" y1="13.9172" x2="109.916" y2="109.916" gradientUnits="userSpaceOnUse">
<stop stop-color="#E0E7FF"/>
<stop offset="1" stop-color="#F3E8FF"/>
</linearGradient>
</defs>
</svg>
